<svg xmlns="http://www.w3.org/2000/svg" viewBox="0 0 1080 1920" width="1080" height="1920"><defs><linearGradient id="g" x1="0" y1="0" x2="0" y2="1"><stop offset="0" stop-color="#13110d"/><stop offset=".7" stop-color="#24221e"/><stop offset="1" stop-color="#13110d"/></linearGradient><pattern id="m" width="96.0" height="96.0" patternUnits="userSpaceOnUse"><g transform="scale(1.6)" opacity=".16"><path d="M0 20 L15 5 L30 20 L45 5 L60 20" stroke="#dcae5a" stroke-width="3" fill="none"/><path d="M0 50 L15 35 L30 50 L45 35 L60 50" stroke="#dcae5a" stroke-width="3" fill="none" opacity=".6"/><circle cx="15" cy="27" r="3" fill="#dcae5a"/><circle cx="45" cy="27" r="3" fill="#dcae5a"/></g></pattern></defs><rect width="1080" height="1920" fill="url(#g)"/><rect width="1080" height="1920" fill="url(#m)"/><g opacity=".22" transform="translate(540 1780) scale(3.2)"><g transform="translate(0 0)"><ellipse cx="0" cy="0" rx="12" ry="8" fill="#d84315"/><circle cx="-12" cy="-6" r="6" fill="#dcae5a"/><path d="M8 2 C40 10 70 -10 96 -34" stroke="#dcae5a" stroke-width="2" fill="none" opacity="1.00"/><path d="M8 2 C40 14 70 -2 92 -22" stroke="#dcae5a" stroke-width="2" fill="none" opacity="0.92"/><path d="M8 2 C40 18 70 6 88 -10" stroke="#dcae5a" stroke-width="2" fill="none" opacity="0.84"/><path d="M8 2 C40 22 70 14 84 2" stroke="#dcae5a" stroke-width="2" fill="none" opacity="0.76"/><path d="M8 2 C40 26 70 22 80 14" stroke="#dcae5a" stroke-width="2" fill="none" opacity="0.68"/><path d="M8 2 C40 30 70 30 76 26" stroke="#dcae5a" stroke-width="2" fill="none" opacity="0.60"/><path d="M8 2 C40 34 70 38 72 38" stroke="#dcae5a" stroke-width="2" fill="none" opacity="0.52"/></g></g><rect x="40" y="40" width="1000" height="1840" rx="40" fill="none" stroke="#dcae5a" stroke-width="3" opacity=".35"/></svg>