<svg xmlns="http://www.w3.org/2000/svg" viewBox="0 0 260 260" width="260" height="260"><path d="M0 0 H240 A240 240 0 0 1 0 240 Z" fill="none" stroke="#d8a64a" stroke-width="2" opacity=".7"/><path d="M0 0 H200 A200 200 0 0 1 0 200 Z" fill="#6b3a1f" opacity=".07"/><g transform="translate(20 20) scale(2.000)" opacity=".9"><path d="M0 20 L15 5 L30 20 L45 5 L60 20" stroke="#d8a64a" stroke-width="3" fill="none"/><path d="M0 50 L15 35 L30 50 L45 35 L60 50" stroke="#6b3a1f" stroke-width="3" fill="none" opacity=".6"/><circle cx="15" cy="27" r="3" fill="#d8a64a"/><circle cx="45" cy="27" r="3" fill="#d8a64a"/></g><g transform="translate(110 40) scale(1.200)" opacity=".6"><path d="M0 20 L15 5 L30 20 L45 5 L60 20" stroke="#d8a64a" stroke-width="3" fill="none"/><path d="M0 50 L15 35 L30 50 L45 35 L60 50" stroke="#6b3a1f" stroke-width="3" fill="none" opacity=".6"/><circle cx="15" cy="27" r="3" fill="#d8a64a"/><circle cx="45" cy="27" r="3" fill="#d8a64a"/></g></svg>