<svg xmlns="http://www.w3.org/2000/svg" viewBox="0 0 300 600" width="300" height="600"><defs><pattern id="m" width="27" height="22.5" patternUnits="userSpaceOnUse"><g transform="scale(0.3)"><path d="M0 30 L15 15 L30 30 L45 15 L60 30 L75 15 L90 30" fill="none" stroke="#c6993d" stroke-width="3"/><path d="M0 60 L15 45 L30 60 L45 45 L60 60 L75 45 L90 60" fill="none" stroke="#3d2a1a" stroke-width="2" opacity=".6"/><circle cx="15" cy="22" r="3" fill="#c6993d"/><circle cx="45" cy="22" r="3" fill="#c6993d"/><circle cx="75" cy="22" r="3" fill="#c6993d"/></g></pattern></defs><path d="M18 40 C51 90 97.2 236 150 236 C202.8 236 249 90 282 40 C262 120 232 282 212 292 L88 292 C68 282 38 120 18 40 Z" fill="#160f0a" stroke="#c6993d" stroke-width="4"/><path d="M18 40 l-6 -20 l12 0 z" fill="#c6993d"/><path d="M282 40 l-6 -20 l12 0 z" fill="#c6993d"/><path d="M70 268 Q150 236 230 268" fill="none" stroke="#c6993d" stroke-width="3"/><path d="M86 290 L214 290 L226 460 L74 460 Z" fill="#9b1c1c" stroke="#c6993d" stroke-width="3"/><path d="M86 290 L214 290 L226 460 L74 460 Z" fill="url(#m)" opacity=".7"/><path d="M80 330 H220 M78 410 H222" stroke="#c6993d" stroke-width="5"/><rect x="130" y="350" width="40" height="44" fill="#160f0a" stroke="#c6993d" stroke-width="3"/><rect x="90" y="460" width="12" height="90" fill="#39332f"/><rect x="144" y="460" width="12" height="90" fill="#39332f"/><rect x="198" y="460" width="12" height="90" fill="#39332f"/><path d="M64 550 H236" stroke="#8b6b2b" stroke-width="6"/></svg>