<svg xmlns="http://www.w3.org/2000/svg" viewBox="0 0 1080 1920" width="1080" height="1920"><defs><linearGradient id="g" x1="0" y1="0" x2="0" y2="1"><stop offset="0" stop-color="#f8f4ee"/><stop offset=".7" stop-color="#fdfbf9"/><stop offset="1" stop-color="#f8f4ee"/></linearGradient><pattern id="m" width="160.0" height="144.0" patternUnits="userSpaceOnUse"><g transform="scale(1.6)" opacity=".16"><path d="M0 50 c20 -30 50 -30 50 0 c0 18 -22 22 -28 8 c-4 -10 6 -14 12 -8" fill="none" stroke="#d4a43f" stroke-width="3.2" stroke-linecap="round"/><path d="M100 50 c-20 -30 -50 -30 -50 0 c0 18 22 22 28 8 c4 -10 -6 -14 -12 -8" fill="none" stroke="#d4a43f" stroke-width="3.2" stroke-linecap="round"/><path d="M50 10 c-8 12 8 12 0 24 c-8 12 8 12 0 24" stroke="#0d0c0a" stroke-width="2" fill="none" opacity=".6"/></g></pattern></defs><rect width="1080" height="1920" fill="url(#g)"/><rect width="1080" height="1920" fill="url(#m)"/><g opacity=".22" transform="translate(540 1780) scale(3.2)"><g transform="translate(0 0)"><g transform="scale(-1 1)"><path d="M10 0 C40 -40 80 -30 96 -10 C70 -14 50 -6 30 10 Z" fill="#0d0c0a"/><path d="M40 -18 l10 -4" stroke="#d4a43f" stroke-width="2"/><path d="M54 -21 l10 -4" stroke="#d4a43f" stroke-width="2"/><path d="M68 -24 l10 -4" stroke="#d4a43f" stroke-width="2"/></g><g transform="scale(1 1)"><path d="M10 0 C40 -40 80 -30 96 -10 C70 -14 50 -6 30 10 Z" fill="#0d0c0a"/><path d="M40 -18 l10 -4" stroke="#d4a43f" stroke-width="2"/><path d="M54 -21 l10 -4" stroke="#d4a43f" stroke-width="2"/><path d="M68 -24 l10 -4" stroke="#d4a43f" stroke-width="2"/></g><ellipse cx="0" cy="0" rx="12" ry="16" fill="#0d0c0a"/><path d="M0 -10 c10 -16 30 -14 34 -4 c-12 -2 -22 2 -30 10 z" fill="#c62828"/><circle cx="-3" cy="-6" r="2" fill="#d4a43f"/></g></g><rect x="40" y="40" width="1000" height="1840" rx="40" fill="none" stroke="#d4a43f" stroke-width="3" opacity=".35"/></svg>