<svg xmlns="http://www.w3.org/2000/svg" viewBox="0 0 80 80" width="80" height="80"><g transform="translate(20 22) scale(1)"><ellipse cx="0" cy="-6" rx="3.5" ry="6" fill="#d6ab48" transform="rotate(0)"/><ellipse cx="0" cy="-6" rx="3.5" ry="6" fill="#d6ab48" transform="rotate(60)"/><ellipse cx="0" cy="-6" rx="3.5" ry="6" fill="#d6ab48" transform="rotate(120)"/><ellipse cx="0" cy="-6" rx="3.5" ry="6" fill="#d6ab48" transform="rotate(180)"/><ellipse cx="0" cy="-6" rx="3.5" ry="6" fill="#d6ab48" transform="rotate(240)"/><ellipse cx="0" cy="-6" rx="3.5" ry="6" fill="#d6ab48" transform="rotate(300)"/><circle r="2.5" fill="#d6ab48"/></g><g transform="translate(60 60) scale(0.8)"><ellipse cx="0" cy="-6" rx="3.5" ry="6" fill="#7a2a14" transform="rotate(0)"/><ellipse cx="0" cy="-6" rx="3.5" ry="6" fill="#7a2a14" transform="rotate(60)"/><ellipse cx="0" cy="-6" rx="3.5" ry="6" fill="#7a2a14" transform="rotate(120)"/><ellipse cx="0" cy="-6" rx="3.5" ry="6" fill="#7a2a14" transform="rotate(180)"/><ellipse cx="0" cy="-6" rx="3.5" ry="6" fill="#7a2a14" transform="rotate(240)"/><ellipse cx="0" cy="-6" rx="3.5" ry="6" fill="#7a2a14" transform="rotate(300)"/><circle r="2.5" fill="#d6ab48"/></g><g transform="translate(62 18) scale(0.5)"><ellipse cx="0" cy="-6" rx="3.5" ry="6" fill="#d6ab48" transform="rotate(0)"/><ellipse cx="0" cy="-6" rx="3.5" ry="6" fill="#d6ab48" transform="rotate(60)"/><ellipse cx="0" cy="-6" rx="3.5" ry="6" fill="#d6ab48" transform="rotate(120)"/><ellipse cx="0" cy="-6" rx="3.5" ry="6" fill="#d6ab48" transform="rotate(180)"/><ellipse cx="0" cy="-6" rx="3.5" ry="6" fill="#d6ab48" transform="rotate(240)"/><ellipse cx="0" cy="-6" rx="3.5" ry="6" fill="#d6ab48" transform="rotate(300)"/><circle r="2.5" fill="#d6ab48"/></g></svg>