<svg xmlns="http://www.w3.org/2000/svg" viewBox="0 0 600 170" width="600" height="170"><path d="M20 120 Q300 70 580 120" fill="none" stroke="#c99a3f" stroke-width="2.4"/><path d="M60 128 Q300 90 540 128" fill="none" stroke="#5a2a14" stroke-width="1.2" opacity=".6"/><circle cx="180" cy="100" r="4.0" fill="#c99a3f"/><circle cx="150" cy="104" r="3.5" fill="#c99a3f"/><circle cx="120" cy="108" r="3.0" fill="#c99a3f"/><circle cx="90" cy="112" r="2.5" fill="#c99a3f"/><circle cx="60" cy="116" r="2.0" fill="#c99a3f"/><circle cx="420" cy="100" r="4.0" fill="#c99a3f"/><circle cx="450" cy="104" r="3.5" fill="#c99a3f"/><circle cx="480" cy="108" r="3.0" fill="#c99a3f"/><circle cx="510" cy="112" r="2.5" fill="#c99a3f"/><circle cx="540" cy="116" r="2.0" fill="#c99a3f"/><g transform="translate(300 96)"><rect x="-16" y="-50" width="32" height="80" rx="10" fill="#5a2a14"/><ellipse cx="0" cy="-50" rx="16" ry="5" fill="#c99a3f"/><path d="M-16 -38 L16 -24" stroke="#c99a3f" stroke-width="2"/><path d="M-16 -18 L16 -4" stroke="#c99a3f" stroke-width="2"/><path d="M-16 2 L16 16" stroke="#c99a3f" stroke-width="2"/><g transform="scale(-1 1)"><path d="M24 20 C40 0 50 -20 70 -30" stroke="#5a2a14" stroke-width="2" fill="none"/><circle cx="40" cy="-4" r="4" fill="#c99a3f"/><circle cx="50" cy="-13" r="4" fill="#c99a3f"/><circle cx="60" cy="-22" r="4" fill="#c99a3f"/></g><g transform="scale(1 1)"><path d="M24 20 C40 0 50 -20 70 -30" stroke="#5a2a14" stroke-width="2" fill="none"/><circle cx="40" cy="-4" r="4" fill="#c99a3f"/><circle cx="50" cy="-13" r="4" fill="#c99a3f"/><circle cx="60" cy="-22" r="4" fill="#c99a3f"/></g></g></svg>