<svg xmlns="http://www.w3.org/2000/svg" viewBox="0 0 600 1200" width="600" height="1200"><defs><pattern id="k" width="120" height="120" patternUnits="userSpaceOnUse"><ellipse cx="30" cy="30" rx="11" ry="25" transform="rotate(45 30 30)" fill="none" stroke="#e3c27a" stroke-width="1"/><ellipse cx="30" cy="30" rx="11" ry="25" transform="rotate(135 30 30)" fill="none" stroke="#e3c27a" stroke-width="1"/><circle cx="30" cy="30" r="2" fill="#e3c27a"/><ellipse cx="90" cy="30" rx="11" ry="25" transform="rotate(45 90 30)" fill="none" stroke="#e3c27a" stroke-width="1"/><ellipse cx="90" cy="30" rx="11" ry="25" transform="rotate(135 90 30)" fill="none" stroke="#e3c27a" stroke-width="1"/><circle cx="90" cy="30" r="2" fill="#e3c27a"/><ellipse cx="30" cy="90" rx="11" ry="25" transform="rotate(45 30 90)" fill="none" stroke="#e3c27a" stroke-width="1"/><ellipse cx="30" cy="90" rx="11" ry="25" transform="rotate(135 30 90)" fill="none" stroke="#e3c27a" stroke-width="1"/><circle cx="30" cy="90" r="2" fill="#e3c27a"/><ellipse cx="90" cy="90" rx="11" ry="25" transform="rotate(45 90 90)" fill="none" stroke="#e3c27a" stroke-width="1"/><ellipse cx="90" cy="90" rx="11" ry="25" transform="rotate(135 90 90)" fill="none" stroke="#e3c27a" stroke-width="1"/><circle cx="90" cy="90" r="2" fill="#e3c27a"/><ellipse cx="60" cy="60" rx="11" ry="25" transform="rotate(45 60 60)" fill="none" stroke="#e3c27a" stroke-width="1"/><ellipse cx="60" cy="60" rx="11" ry="25" transform="rotate(135 60 60)" fill="none" stroke="#e3c27a" stroke-width="1"/><circle cx="60" cy="60" r="2" fill="#e3c27a"/><ellipse cx="0" cy="60" rx="11" ry="25" transform="rotate(45 0 60)" fill="none" stroke="#e3c27a" stroke-width="1"/><ellipse cx="0" cy="60" rx="11" ry="25" transform="rotate(135 0 60)" fill="none" stroke="#e3c27a" stroke-width="1"/><circle cx="0" cy="60" r="2" fill="#e3c27a"/><ellipse cx="120" cy="60" rx="11" ry="25" transform="rotate(45 120 60)" fill="none" stroke="#e3c27a" stroke-width="1"/><ellipse cx="120" cy="60" rx="11" ry="25" transform="rotate(135 120 60)" fill="none" stroke="#e3c27a" stroke-width="1"/><circle cx="120" cy="60" r="2" fill="#e3c27a"/><ellipse cx="60" cy="0" rx="11" ry="25" transform="rotate(45 60 0)" fill="none" stroke="#e3c27a" stroke-width="1"/><ellipse cx="60" cy="0" rx="11" ry="25" transform="rotate(135 60 0)" fill="none" stroke="#e3c27a" stroke-width="1"/><circle cx="60" cy="0" r="2" fill="#e3c27a"/><ellipse cx="60" cy="120" rx="11" ry="25" transform="rotate(45 60 120)" fill="none" stroke="#e3c27a" stroke-width="1"/><ellipse cx="60" cy="120" rx="11" ry="25" transform="rotate(135 60 120)" fill="none" stroke="#e3c27a" stroke-width="1"/><circle cx="60" cy="120" r="2" fill="#e3c27a"/></pattern><radialGradient id="v" cx=".5" cy=".45" r=".7"><stop offset=".4" stop-color="#fff"/><stop offset="1" stop-color="#fff" stop-opacity=".2"/></radialGradient><mask id="m"><rect width="600" height="1200" fill="url(#v)"/></mask><linearGradient id="g" x1="0" y1="0" x2="0" y2="1"><stop offset=".6" stop-color="#e3c27a" stop-opacity="0"/><stop offset="1" stop-color="#e3c27a" stop-opacity=".16"/></linearGradient></defs><rect width="600" height="1200" fill="url(#k)" opacity=".09" mask="url(#m)"/><rect width="600" height="1200" fill="url(#g)"/></svg>