<svg xmlns="http://www.w3.org/2000/svg" viewBox="0 0 300 300" width="300" height="300"><defs><pattern id="m" width="40" height="40" patternUnits="userSpaceOnUse"><g transform="scale(0.5)"><rect width="80" height="80" fill="none"/><rect x="0" y="3" width="80" height="6" fill="#846a25" opacity=".45"/><rect x="0" y="71" width="80" height="6" fill="#846a25" opacity=".45"/><path d="M40 14 L66 40 L40 66 L14 40 Z" fill="none" stroke="#e4b740" stroke-width="2.2"/><path d="M40 26 L54 40 L40 54 L26 40 Z" fill="#cc9c23" opacity=".55"/><path d="M40 14 m-6 0 h12" stroke="#e4b740" stroke-width="2"/><path d="M66 40 m-6 0 h12" stroke="#e4b740" stroke-width="2"/><path d="M40 66 m-6 0 h12" stroke="#e4b740" stroke-width="2"/><path d="M14 40 m-6 0 h12" stroke="#e4b740" stroke-width="2"/></g></pattern><clipPath id="o"><circle cx="150" cy="150" r="118"/></clipPath></defs><circle cx="150" cy="150" r="140" fill="#846a25"/><path d="M150 4 l7 14 h-14 z" fill="#e4b740" transform="rotate(0 150 150)"/><path d="M150 4 l7 14 h-14 z" fill="#e4b740" transform="rotate(15 150 150)"/><path d="M150 4 l7 14 h-14 z" fill="#e4b740" transform="rotate(30 150 150)"/><path d="M150 4 l7 14 h-14 z" fill="#e4b740" transform="rotate(45 150 150)"/><path d="M150 4 l7 14 h-14 z" fill="#e4b740" transform="rotate(60 150 150)"/><path d="M150 4 l7 14 h-14 z" fill="#e4b740" transform="rotate(75 150 150)"/><path d="M150 4 l7 14 h-14 z" fill="#e4b740" transform="rotate(90 150 150)"/><path d="M150 4 l7 14 h-14 z" fill="#e4b740" transform="rotate(105 150 150)"/><path d="M150 4 l7 14 h-14 z" fill="#e4b740" transform="rotate(120 150 150)"/><path d="M150 4 l7 14 h-14 z" fill="#e4b740" transform="rotate(135 150 150)"/><path d="M150 4 l7 14 h-14 z" fill="#e4b740" transform="rotate(150 150 150)"/><path d="M150 4 l7 14 h-14 z" fill="#e4b740" transform="rotate(165 150 150)"/><path d="M150 4 l7 14 h-14 z" fill="#e4b740" transform="rotate(180 150 150)"/><path d="M150 4 l7 14 h-14 z" fill="#e4b740" transform="rotate(195 150 150)"/><path d="M150 4 l7 14 h-14 z" fill="#e4b740" transform="rotate(210 150 150)"/><path d="M150 4 l7 14 h-14 z" fill="#e4b740" transform="rotate(225 150 150)"/><path d="M150 4 l7 14 h-14 z" fill="#e4b740" transform="rotate(240 150 150)"/><path d="M150 4 l7 14 h-14 z" fill="#e4b740" transform="rotate(255 150 150)"/><path d="M150 4 l7 14 h-14 z" fill="#e4b740" transform="rotate(270 150 150)"/><path d="M150 4 l7 14 h-14 z" fill="#e4b740" transform="rotate(285 150 150)"/><path d="M150 4 l7 14 h-14 z" fill="#e4b740" transform="rotate(300 150 150)"/><path d="M150 4 l7 14 h-14 z" fill="#e4b740" transform="rotate(315 150 150)"/><path d="M150 4 l7 14 h-14 z" fill="#e4b740" transform="rotate(330 150 150)"/><path d="M150 4 l7 14 h-14 z" fill="#e4b740" transform="rotate(345 150 150)"/><rect width="300" height="300" fill="url(#m)" clip-path="url(#o)" opacity=".9"/><circle cx="150" cy="150" r="118" fill="none" stroke="#e4b740" stroke-width="5"/><circle cx="150" cy="150" r="132" fill="none" stroke="#e4b740" stroke-width="2"/><circle cx="150" cy="150" r="64" fill="#574618" stroke="#e4b740" stroke-width="4"/><g transform="translate(150 158) scale(.62)"><g transform="translate(0 0)"><path d="M-70 -6 L0 -50 L70 -6 Z" fill="#846a25"/><rect x="-56" y="-6" width="112" height="30" fill="#e4b740" opacity=".9"/><path d="M-44 0 l8 8 l-8 8 l-8 -8 z" fill="#846a25"/><path d="M-22 0 l8 8 l-8 8 l-8 -8 z" fill="#846a25"/><path d="M0 0 l8 8 l-8 8 l-8 -8 z" fill="#846a25"/><path d="M22 0 l8 8 l-8 8 l-8 -8 z" fill="#846a25"/><path d="M44 0 l8 8 l-8 8 l-8 -8 z" fill="#846a25"/></g></g></svg>