<svg xmlns="http://www.w3.org/2000/svg" viewBox="0 0 600 170" width="600" height="170"><path d="M20 120 Q300 70 580 120" fill="none" stroke="#e3b44f" stroke-width="2.4"/><path d="M60 128 Q300 90 540 128" fill="none" stroke="#e3b44f" stroke-width="1.2" opacity=".6"/><circle cx="180" cy="100" r="4.0" fill="#e3b44f"/><circle cx="150" cy="104" r="3.5" fill="#e3b44f"/><circle cx="120" cy="108" r="3.0" fill="#e3b44f"/><circle cx="90" cy="112" r="2.5" fill="#e3b44f"/><circle cx="60" cy="116" r="2.0" fill="#e3b44f"/><circle cx="420" cy="100" r="4.0" fill="#e3b44f"/><circle cx="450" cy="104" r="3.5" fill="#e3b44f"/><circle cx="480" cy="108" r="3.0" fill="#e3b44f"/><circle cx="510" cy="112" r="2.5" fill="#e3b44f"/><circle cx="540" cy="116" r="2.0" fill="#e3b44f"/><g transform="translate(190 56)"><path d="M0 70 L20 20 L40 70 Z" fill="#e3b44f" opacity=".85"/><path d="M40 70 L60 20 L80 70 Z" fill="#e3b44f" opacity=".85"/><path d="M80 70 L100 0 L120 70 Z" fill="#e3b44f" opacity=".85"/><path d="M120 70 L140 0 L160 70 Z" fill="#e3b44f" opacity=".85"/><path d="M160 70 L180 20 L200 70 Z" fill="#e3b44f" opacity=".85"/><path d="M200 70 L220 20 L240 70 Z" fill="#e3b44f" opacity=".85"/></g></svg>